<mxfile host="app.diagrams.net" agent="Mozilla/5.0 (Macintosh; Intel Mac OS X 10_15_7) AppleWebKit/537.36 (KHTML, like Gecko) Chrome/126.0.0.0 Safari/537.36" version="24.7.6">
  <diagram name="Page-1" id="mJASKHyNwnHnYTRJuOTG">
    <mxGraphModel dx="988" dy="538" grid="1" gridSize="10" guides="1" tooltips="1" connect="1" arrows="1" fold="1" page="1" pageScale="1" pageWidth="827" pageHeight="1169" math="0" shadow="0">
      <root>
        <mxCell id="0" />
        <mxCell id="1" parent="0" />
        <mxCell id="xcPKZwSlETR_9d4cBnFX-39" value="RabbitMQ&amp;nbsp; &amp;nbsp; &amp;nbsp;" style="shape=dataStorage;whiteSpace=wrap;html=1;fixedSize=1;fillColor=#ffe6cc;strokeColor=#d79b00;" vertex="1" parent="1">
          <mxGeometry x="260" y="360" width="100" height="70" as="geometry" />
        </mxCell>
        <mxCell id="xcPKZwSlETR_9d4cBnFX-52" value="" style="endArrow=classic;html=1;rounded=0;entryX=0;entryY=0.5;entryDx=0;entryDy=0;exitX=0.9;exitY=0.5;exitDx=0;exitDy=0;exitPerimeter=0;" edge="1" parent="1" source="xcPKZwSlETR_9d4cBnFX-63" target="xcPKZwSlETR_9d4cBnFX-39">
          <mxGeometry relative="1" as="geometry">
            <mxPoint x="130" y="480" as="sourcePoint" />
            <mxPoint x="480" y="510" as="targetPoint" />
          </mxGeometry>
        </mxCell>
        <mxCell id="xcPKZwSlETR_9d4cBnFX-53" value="Post" style="edgeLabel;resizable=0;html=1;;align=center;verticalAlign=middle;" connectable="0" vertex="1" parent="xcPKZwSlETR_9d4cBnFX-52">
          <mxGeometry relative="1" as="geometry" />
        </mxCell>
        <mxCell id="xcPKZwSlETR_9d4cBnFX-59" value="HT (Heaven Transactions)" style="swimlane;whiteSpace=wrap;html=1;fillColor=#d5e8d4;strokeColor=#82b366;" vertex="1" parent="1">
          <mxGeometry x="610" y="360" width="250" height="200" as="geometry" />
        </mxCell>
        <mxCell id="xcPKZwSlETR_9d4cBnFX-87" value="Go" style="whiteSpace=wrap;html=1;aspect=fixed;fillColor=#b1ddf0;strokeColor=#10739e;" vertex="1" parent="xcPKZwSlETR_9d4cBnFX-59">
          <mxGeometry x="40" y="60" width="80" height="80" as="geometry" />
        </mxCell>
        <mxCell id="xcPKZwSlETR_9d4cBnFX-88" value="gRPC" style="whiteSpace=wrap;html=1;aspect=fixed;fillColor=#b0e3e6;strokeColor=#0e8088;" vertex="1" parent="xcPKZwSlETR_9d4cBnFX-59">
          <mxGeometry x="160" y="75" width="50" height="50" as="geometry" />
        </mxCell>
        <mxCell id="xcPKZwSlETR_9d4cBnFX-60" value="Stripe API" style="rhombus;whiteSpace=wrap;html=1;fillColor=#e6d0de;gradientColor=#d5739d;strokeColor=#996185;" vertex="1" parent="1">
          <mxGeometry x="940" y="420" width="80" height="80" as="geometry" />
        </mxCell>
        <mxCell id="xcPKZwSlETR_9d4cBnFX-61" value="" style="endArrow=classic;startArrow=classic;html=1;rounded=0;entryX=0;entryY=0.5;entryDx=0;entryDy=0;exitX=1;exitY=0.5;exitDx=0;exitDy=0;" edge="1" parent="1" source="xcPKZwSlETR_9d4cBnFX-59" target="xcPKZwSlETR_9d4cBnFX-60">
          <mxGeometry width="50" height="50" relative="1" as="geometry">
            <mxPoint x="875" y="495" as="sourcePoint" />
            <mxPoint x="750" y="505" as="targetPoint" />
          </mxGeometry>
        </mxCell>
        <mxCell id="xcPKZwSlETR_9d4cBnFX-63" value="Client" style="shape=actor;whiteSpace=wrap;html=1;" vertex="1" parent="1">
          <mxGeometry x="130" y="415" width="60" height="90" as="geometry" />
        </mxCell>
        <mxCell id="xcPKZwSlETR_9d4cBnFX-64" value="HTTP" style="text;html=1;align=center;verticalAlign=middle;whiteSpace=wrap;rounded=0;" vertex="1" parent="1">
          <mxGeometry x="870" y="430" width="60" height="30" as="geometry" />
        </mxCell>
        <mxCell id="xcPKZwSlETR_9d4cBnFX-65" value="MongoDB Atlas" style="shape=cylinder3;whiteSpace=wrap;html=1;boundedLbl=1;backgroundOutline=1;size=15;fillColor=#d5e8d4;strokeColor=#82b366;gradientColor=#97d077;" vertex="1" parent="1">
          <mxGeometry x="685" y="610" width="100" height="80" as="geometry" />
        </mxCell>
        <mxCell id="xcPKZwSlETR_9d4cBnFX-66" value="" style="endArrow=classic;startArrow=classic;html=1;rounded=0;exitX=0.5;exitY=0;exitDx=0;exitDy=0;exitPerimeter=0;entryX=0.5;entryY=1;entryDx=0;entryDy=0;" edge="1" parent="1" source="xcPKZwSlETR_9d4cBnFX-65" target="xcPKZwSlETR_9d4cBnFX-59">
          <mxGeometry width="50" height="50" relative="1" as="geometry">
            <mxPoint x="625" y="565" as="sourcePoint" />
            <mxPoint x="675" y="515" as="targetPoint" />
          </mxGeometry>
        </mxCell>
        <mxCell id="xcPKZwSlETR_9d4cBnFX-69" value="TCP/IP" style="text;html=1;align=center;verticalAlign=middle;whiteSpace=wrap;rounded=0;" vertex="1" parent="1">
          <mxGeometry x="740" y="570" width="60" height="30" as="geometry" />
        </mxCell>
        <mxCell id="xcPKZwSlETR_9d4cBnFX-75" value="" style="endArrow=classic;html=1;rounded=0;exitX=1;exitY=0.5;exitDx=0;exitDy=0;entryX=0;entryY=0.5;entryDx=0;entryDy=0;" edge="1" parent="1" source="xcPKZwSlETR_9d4cBnFX-39" target="xcPKZwSlETR_9d4cBnFX-83">
          <mxGeometry relative="1" as="geometry">
            <mxPoint x="340" y="480" as="sourcePoint" />
            <mxPoint x="440" y="440" as="targetPoint" />
          </mxGeometry>
        </mxCell>
        <mxCell id="xcPKZwSlETR_9d4cBnFX-76" value="Subscribe" style="edgeLabel;resizable=0;html=1;;align=center;verticalAlign=middle;" connectable="0" vertex="1" parent="xcPKZwSlETR_9d4cBnFX-75">
          <mxGeometry relative="1" as="geometry" />
        </mxCell>
        <mxCell id="xcPKZwSlETR_9d4cBnFX-77" value="RabbitMQ&amp;nbsp; &amp;nbsp; &amp;nbsp;" style="shape=dataStorage;whiteSpace=wrap;html=1;fixedSize=1;fillColor=#ffe6cc;strokeColor=#d79b00;" vertex="1" parent="1">
          <mxGeometry x="260" y="490" width="100" height="70" as="geometry" />
        </mxCell>
        <mxCell id="xcPKZwSlETR_9d4cBnFX-78" value="" style="endArrow=classic;html=1;rounded=0;entryX=1;entryY=0.5;entryDx=0;entryDy=0;exitX=0;exitY=0.5;exitDx=0;exitDy=0;" edge="1" parent="1" source="xcPKZwSlETR_9d4cBnFX-83" target="xcPKZwSlETR_9d4cBnFX-77">
          <mxGeometry relative="1" as="geometry">
            <mxPoint x="440" y="490" as="sourcePoint" />
            <mxPoint x="250" y="400" as="targetPoint" />
          </mxGeometry>
        </mxCell>
        <mxCell id="xcPKZwSlETR_9d4cBnFX-79" value="Post" style="edgeLabel;resizable=0;html=1;;align=center;verticalAlign=middle;" connectable="0" vertex="1" parent="xcPKZwSlETR_9d4cBnFX-78">
          <mxGeometry relative="1" as="geometry" />
        </mxCell>
        <mxCell id="xcPKZwSlETR_9d4cBnFX-80" value="" style="endArrow=classic;html=1;rounded=0;exitX=0;exitY=0.5;exitDx=0;exitDy=0;entryX=1;entryY=0.75;entryDx=0;entryDy=0;" edge="1" parent="1" source="xcPKZwSlETR_9d4cBnFX-77" target="xcPKZwSlETR_9d4cBnFX-63">
          <mxGeometry relative="1" as="geometry">
            <mxPoint x="370" y="400" as="sourcePoint" />
            <mxPoint x="460" y="470" as="targetPoint" />
          </mxGeometry>
        </mxCell>
        <mxCell id="xcPKZwSlETR_9d4cBnFX-81" value="Subscribe" style="edgeLabel;resizable=0;html=1;;align=center;verticalAlign=middle;" connectable="0" vertex="1" parent="xcPKZwSlETR_9d4cBnFX-80">
          <mxGeometry relative="1" as="geometry" />
        </mxCell>
        <mxCell id="xcPKZwSlETR_9d4cBnFX-83" value="Py-Proxy" style="triangle;whiteSpace=wrap;html=1;fillColor=#b1ddf0;strokeColor=#10739e;" vertex="1" parent="1">
          <mxGeometry x="450" y="420" width="80" height="80" as="geometry" />
        </mxCell>
        <mxCell id="xcPKZwSlETR_9d4cBnFX-89" value="" style="endArrow=classic;startArrow=classic;html=1;rounded=0;entryX=0;entryY=0.5;entryDx=0;entryDy=0;" edge="1" parent="1" source="xcPKZwSlETR_9d4cBnFX-83" target="xcPKZwSlETR_9d4cBnFX-59">
          <mxGeometry width="50" height="50" relative="1" as="geometry">
            <mxPoint x="530" y="530" as="sourcePoint" />
            <mxPoint x="580" y="480" as="targetPoint" />
          </mxGeometry>
        </mxCell>
        <mxCell id="xcPKZwSlETR_9d4cBnFX-90" value="gRPC" style="text;html=1;align=center;verticalAlign=middle;whiteSpace=wrap;rounded=0;" vertex="1" parent="1">
          <mxGeometry x="540" y="430" width="60" height="30" as="geometry" />
        </mxCell>
      </root>
    </mxGraphModel>
  </diagram>
</mxfile>
